<svg height="511pt" viewBox="1 0 511.99907 511" width="511pt" xmlns="http://www.w3.org/2000/svg"><path d="m428.410156 511.964844h-352.015625c-37.332031 0-67.59375-30.261719-67.59375-67.59375v-23.292969c0-12.230469 9.914063-22.144531 22.140625-22.144531h442.921875c12.230469 0 22.140625 9.914062 22.140625 22.144531v23.292969c.003906 37.332031-30.261718 67.59375-67.59375 67.59375zm0 0" fill="#ffc265"/><path d="m496.007812 421.074219v23.296875c0 37.335937-30.261718 67.597656-67.597656 67.597656h-352.011718c-21.53125 0-40.695313-10.054688-53.085938-25.734375 6.765625 2.269531 14.007812 3.5 21.53125 3.5h358.453125c33.785156 0 61.167969-27.382813 61.167969-61.15625v-29.644531h9.402344c12.222656 0 22.140624 9.910156 22.140624 22.140625zm0 0" fill="#ffb541"/><path d="m463.425781 352.710938h-414.148437c-13.414063 0-24.953125 10.308593-25.585938 23.707031-.671875 14.304687 10.726563 26.113281 24.882813 26.113281h29.25c4.617187 0 8.363281 3.742188 8.363281 8.359375v12.328125c0 13.757812 10.570312 25.59375 24.3125 26.242188 14.671875.691406 26.785156-11.003907 26.785156-25.523438v-13.046875c0-4.617187 3.742188-8.359375 8.359375-8.359375h24.484375c4.617188 0 8.359375 3.742188 8.359375 8.359375v48.15625c0 14.113281 11.441407 25.550781 25.550781 25.550781 14.109376 0 25.550782-11.4375 25.550782-25.550781v-48.15625c0-4.617187 3.742187-8.359375 8.359375-8.359375h224.773437c13.410156 0 24.953125-10.308594 25.582032-23.707031.675781-14.300781-10.722657-26.113281-24.878907-26.113281zm0 0" fill="#fbc700"/><path d="m474.011719 356.566406h-436.023438c-7.363281 0-13.335937-5.972656-13.335937-13.335937v-43.953125c0-7.367188 5.972656-13.339844 13.335937-13.339844h436.023438c7.367187 0 13.339843 5.972656 13.339843 13.339844v43.953125c0 7.363281-5.972656 13.335937-13.339843 13.335937zm0 0" fill="#945b44"/><path d="m29.390625 300.359375c-3.492187 6.546875-.222656 14.738281 6.875 16.917969 15.726563 4.828125 20.5 16.625 43.816406 16.625 29.316407 0 29.316407-18.648438 58.628907-18.648438 29.316406 0 29.316406 18.648438 58.636718 18.648438 29.320313 0 29.320313-18.648438 58.636719-18.648438 29.320313 0 29.320313 18.648438 58.640625 18.648438 29.316406 0 29.316406-18.648438 58.636719-18.648438 29.324219 0 29.324219 18.648438 58.648437 18.648438 23.320313 0 28.09375-11.800782 43.828125-16.628906 7.09375-2.175782 10.367188-10.367188 6.875-16.914063l-9.101562-17.066406h-435.023438zm0 0" fill="#87523e"/><path d="m29.390625 277.699219c-3.492187 6.546875-.222656 14.738281 6.875 16.914062 15.726563 4.828125 20.5 16.625 43.816406 16.625 29.316407 0 29.316407-18.648437 58.628907-18.648437 29.316406 0 29.316406 18.648437 58.636718 18.648437 29.320313 0 29.320313-18.648437 58.636719-18.648437 29.320313 0 29.320313 18.648437 58.640625 18.648437 29.316406 0 29.316406-18.648437 58.636719-18.648437 29.324219 0 29.324219 18.648437 58.648437 18.648437 23.320313 0 28.09375-11.796875 43.828125-16.625 7.09375-2.175781 10.367188-10.367187 6.875-16.917969l-9.101562-17.0625h-435.023438zm0 0" fill="#43cd8e"/><path d="m29.390625 277.699219c-3.492187 6.546875-.222656 14.738281 6.875 16.914062 15.726563 4.828125 20.5 16.625 43.816406 16.625 29.316407 0 29.316407-18.648437 58.628907-18.648437 29.316406 0 29.316406 18.648437 58.636718 18.648437 29.320313 0 29.320313-18.648437 58.636719-18.648437 29.320313 0 29.320313 18.648437 58.640625 18.648437 29.316406 0 29.316406-18.648437 58.636719-18.648437 29.324219 0 29.324219 18.648437 58.648437 18.648437 23.320313 0 28.09375-11.796875 43.828125-16.625 7.09375-2.175781 10.367188-10.367187 6.875-16.917969l-9.101562-17.0625h-435.023438zm0 0" fill="#43cd8e"/><path d="m472.746094 262.589844h-433.492188c-8.535156 0-15.453125-6.917969-15.453125-15.453125v-16.066407c0-8.539062 6.917969-15.457031 15.453125-15.457031h433.492188c8.535156 0 15.457031 6.917969 15.457031 15.457031v16.066407c0 8.535156-6.921875 15.453125-15.457031 15.453125zm0 0" fill="#ea4444"/><path d="m503.222656 147.664062c-23.011718-61.738281-71.710937-98.300781-119.847656-119.925781-80.835938-36.316406-173.910156-36.316406-254.746094 0-48.140625 21.628907-96.835937 58.1875-119.851562 119.925781-6.03125 16.183594-8.7890628 33.40625-8.77343775 50.675782.00781255 10.21875 8.38281275 18.464844 18.59765575 18.464844h474.796876c10.21875 0 18.589843-8.246094 18.601562-18.464844.015625-17.269532-2.742188-34.492188-8.777344-50.675782zm0 0" fill="#ffc265"/><path d="m511.996094 198.339844c0 10.214844-8.375 18.460937-18.597656 18.460937h-474.800782c-10.210937 0-18.5859372-8.246093-18.597656-18.460937 0-2.394532.0546875-4.792969.15625-7.175782h439.261719c9.65625 0 17.582031-7.796874 17.589843-17.453124.011719-16.332032-2.59375-32.617188-8.300781-47.917969-21.761719-58.371094-67.808593-92.941407-113.316406-113.390625-2.976563-1.332032-5.96875-2.625-8.984375-3.855469 19.4375 4.496094 38.519531 10.898437 56.972656 19.1875 48.136719 21.636719 96.832032 58.191406 119.84375 119.925781 6.03125 16.183594 8.792969 33.40625 8.773438 50.679688zm0 0" fill="#ffb541"/><path d="m72.027344 215.78125 109.078125 57.542969c10.632812 5.609375 22.027343 5.679687 32.6875.207031l112.46875-57.75zm0 0" fill="#fbc700"/><path d="m72.027344 215.78125 109.078125 57.542969c10.632812 5.609375 22.027343 5.679687 32.6875.207031l112.46875-57.75zm0 0" fill="#e9b900"/><path d="m120.457031 215.78125 67.519531 35.617188c6.582032 3.472656 13.636719 3.519531 20.234376.132812l69.621093-35.75zm0 0" fill="#fbc700"/><g fill="#ffb541"><path d="m214.945312 46.898438c0 5.433593-4.402343 9.835937-9.835937 9.835937-5.429687 0-9.835937-4.402344-9.835937-9.835937 0-5.433594 4.40625-9.835938 9.835937-9.835938 5.433594 0 9.835937 4.402344 9.835937 9.835938zm0 0"/><path d="m316.726562 46.898438c0 5.433593-4.402343 9.835937-9.835937 9.835937s-9.835937-4.402344-9.835937-9.835937c0-5.433594 4.402343-9.835938 9.835937-9.835938s9.835937 4.402344 9.835937 9.835938zm0 0"/><path d="m140.488281 88.90625c0 5.433594-4.40625 9.835938-9.839843 9.835938-5.429688 0-9.835938-4.402344-9.835938-9.835938s4.40625-9.835938 9.835938-9.835938c5.433593 0 9.839843 4.402344 9.839843 9.835938zm0 0"/><path d="m265.839844 88.90625c0 5.433594-4.40625 9.835938-9.839844 9.835938-5.429688 0-9.835938-4.402344-9.835938-9.835938s4.40625-9.835938 9.835938-9.835938c5.433594 0 9.839844 4.402344 9.839844 9.835938zm0 0"/><path d="m391.191406 88.90625c0 5.433594-4.40625 9.835938-9.839844 9.835938-5.429687 0-9.835937-4.402344-9.835937-9.835938s4.40625-9.835938 9.835937-9.835938c5.433594 0 9.839844 4.402344 9.839844 9.835938zm0 0"/></g></svg>