<svg id="Capa_1" enable-background="new 0 0 512 512" height="512" viewBox="0 0 512 512" width="512" xmlns="http://www.w3.org/2000/svg"><g><path d="m382.056 446.357c-21.989-6.63-48.858-11.31-78.277-13.74l-12.16 18.779c-14.427 22.247-40.149 19.359-35.619 19.359-14.439 0-27.749-7.24-35.609-19.359l-12.17-18.779c-29.419 2.43-56.288 7.11-78.277 13.74-32.749 9.88-43.348 21.099-43.348 24.989 0 3.88 10.6 15.099 43.348 24.979 69.238 20.899 182.873 20.9 252.111 0 32.749-9.88 43.348-21.099 43.348-24.979.001-3.89-10.598-15.109-43.347-24.989z"/><path d="m245.57 435.077c4.908 7.568 15.956 7.576 20.869 0 17.254-26.637 116.189-179.347 131.495-202.973 53.616-107.273-24.799-234.769-145.914-232.062-116.43 2.633-190.328 127.255-137.945 232.062 18.897 29.17 112.117 173.057 131.495 202.973zm-63.117-325.818h22.939v-40.369c0-17.019 13.84-30.859 30.849-30.859h39.519c17.009 0 30.849 13.839 30.849 30.859v40.369h22.939c14.114 0 25.267 12.178 23.899 26.319 0 .07-.01.13-.02.19l-11.8 108.066c-1.44 13.23-12.56 23.209-25.869 23.209h-119.366c-13.29 0-24.409-9.96-25.869-23.169l-11.95-108.076c-.01-.06-.01-.12-.02-.18-1.389-14.168 9.785-26.359 23.9-26.359z"/><path d="m312.198 237.044 10.67-97.786h-133.726l10.81 97.786z"/><path d="m276.609 68.89c0-.47-.38-.86-.85-.86h-39.519c-.47 0-.85.39-.85.86v40.359h41.219z"/></g></svg>