<?xml version="1.0"?>
<svg xmlns="http://www.w3.org/2000/svg" xmlns:xlink="http://www.w3.org/1999/xlink" xmlns:svgjs="http://svgjs.com/svgjs" version="1.1" width="512" height="512" x="0" y="0" viewBox="0 0 512.0009 512" style="enable-background:new 0 0 512 512" xml:space="preserve"><g><path xmlns="http://www.w3.org/2000/svg" d="m509.25 146.335938c-2.628906-3.71875-6.796875-6.039063-11.332031-6.316407-1.085938-.132812-22.023438-3.125-49.621094-36.40625-5.476563-6.605469-11.078125-13.917969-17.011719-21.664062-24.160156-31.535157-51.542968-67.277344-88.953125-79.242188-21.855469-6.988281-45.734375-.335937-67.246093 18.742188-4.828126 4.28125-11.785157 6.742187-19.085938 6.742187s-14.257812-2.460937-19.085938-6.742187c-21.507812-19.078125-45.390624-25.730469-67.246093-18.742188-37.40625 11.964844-64.792969 47.707031-88.953125 79.242188-5.933594 7.746093-11.535156 15.058593-17.011719 21.664062-27.601563 33.285157-48.542969 36.273438-49.625 36.40625-4.527344.277344-8.699219 2.59375-11.328125 6.3125-2.6953125 3.816407-3.460938 8.671875-2.066406 13.132813.078125.25 8.375 25.902344 28.628906 58.515625 13.140625 21.152343 33.34375 48.253906 61.6875 72.285156v-68.023437c-14.917969-21.804688-21.578125-39.859376-22.410156-42.199219-6.167969-17.402344-.90625-37.164063 13.085937-49.183594 6.933594-5.957031 26.011719-20.75 47.699219-35.101563 28.574219-18.90625 50.632812-29.957031 67.4375-33.785156 5.726562-1.304687 11.644531-1.964844 17.601562-1.964844 14.105469 0 28.347657 3.683594 41.585938 10.707032 13.242188-7.023438 27.480469-10.707032 41.589844-10.707032 5.957031 0 11.878906.664063 17.601562 1.964844 16.804688 3.832032 38.863282 14.882813 67.433594 33.785156 21.691406 14.351563 40.769531 29.144532 47.703125 35.101563 13.992187 12.023437 19.253906 31.78125 13.089844 49.167969-.835938 2.351562-7.496094 20.410156-22.414063 42.214844v68.023437c28.339844-24.03125 48.546875-51.132813 61.6875-72.285156 20.253906-32.613281 28.550782-58.265625 28.628906-58.515625 1.390626-4.460938.625-9.316406-2.070312-13.128906zm-495.132812-6.320313c.207031-.015625.316406-.015625.324218-.015625-.109375.003906-.214844.011719-.324218.015625zm483.445312-.011719c.003906 0 .113281-.003906.316406.015625-.105468-.007812-.210937-.011719-.316406-.015625zm0 0" fill="#ffffff" data-original="#000000" style=""/><path xmlns="http://www.w3.org/2000/svg" d="m100.832031 179.355469c2.859375-3.574219 6.285157-6.734375 10.203125-9.347657 25.3125-16.875 54.691406-25.792968 84.964844-25.792968 20.605469 0 41.066406 4.21875 60 12.292968 18.933594-8.074218 39.394531-12.292968 60-12.292968 30.273438 0 59.652344 8.917968 84.960938 25.789062 3.921874 2.613282 7.347656 5.777344 10.207031 9.351563 2.585937-5.511719 3.84375-8.996094 3.972656-9.351563 2.070313-5.839844.335937-12.355468-4.367187-16.390625-13.113282-11.265625-72.011719-55.5-102.25-62.390625-13.910157-3.167968-29.203126-.09375-43.0625 8.664063-1.675782 1.058593-5.042969 2.1875-9.460938 2.1875s-7.785156-1.128907-9.460938-2.1875c-13.859374-8.757813-29.152343-11.832031-43.066406-8.664063-30.234375 6.890625-89.136718 51.125-102.25 62.390625-4.699218 4.035157-6.433594 10.550781-4.363281 16.390625.128906.355469 1.382813 3.839844 3.972656 9.351563zm0 0" fill="#ffffff" data-original="#000000" style=""/><path xmlns="http://www.w3.org/2000/svg" d="m384.324219 194.96875c-34.074219-22.714844-76.320313-26.777344-113.324219-12.191406v194.214844c0 8.285156-6.714844 15-15 15s-15-6.714844-15-15v-194.214844c-37-14.582032-79.246094-10.523438-113.320312 12.191406-4.175782 2.78125-6.679688 7.464844-6.679688 12.480469v169.542969c0 74.441406 60.558594 135.003906 135 135.003906s135.003906-60.5625 135.003906-135.003906v-169.542969c-.003906-5.015625-2.507812-9.699219-6.679687-12.480469zm0 0" fill="#ffffff" data-original="#000000" style=""/></g></svg>
